<?xml version="1.0" standalone="no"?>
<!DOCTYPE svg PUBLIC "-//W3C//DTD SVG 20010904//EN"
 "http://www.w3.org/TR/2001/REC-SVG-20010904/DTD/svg10.dtd">
<svg version="1.0" xmlns="http://www.w3.org/2000/svg"
 width="700.000000pt" height="700.000000pt" viewBox="0 0 700.000000 700.000000"
 preserveAspectRatio="xMidYMid meet">
<metadata>
Created by potrace 1.14, written by Peter Selinger 2001-2017
</metadata>
<g transform="translate(0.000000,700.000000) scale(0.100000,-0.100000)"
fill="#000000" stroke="none">
<path d="M1757 5904 c-1 -1 -31 -4 -67 -7 -299 -24 -549 -266 -586 -567 -3
-24 -6 -351 -4 -565 l0 -100 53 1 c28 1 59 3 67 3 13 1 15 40 15 304 -1 206 3
324 12 372 34 187 173 341 358 397 65 20 92 22 397 22 211 1 328 5 329 11 1 6
2 36 3 68 2 55 1 57 -24 58 -50 2 -552 4 -553 3z"/>
<path d="M4683 5900 c-15 -4 -18 -15 -17 -60 1 -30 2 -60 3 -65 1 -7 105 -10
301 -10 339 0 410 -7 509 -56 87 -43 187 -142 229 -229 50 -102 58 -169 57
-507 0 -167 2 -303 5 -304 27 -5 122 -3 126 2 9 15 5 646 -5 694 -56 287 -273
491 -565 532 -50 7 -619 10 -643 3z"/>
<path d="M3010 5575 l0 -255 -85 -1 c-47 -1 -88 -2 -92 -3 -98 -23 -133 -80
-133 -216 0 -65 -3 -90 -12 -91 -7 0 -122 -1 -255 -1 l-243 -1 0 -28 0 -29
255 0 255 0 0 -200 0 -200 -255 0 -255 0 0 -30 0 -30 255 0 255 0 0 -200 0
-200 -254 0 -254 0 -4 -30 -5 -30 259 0 258 0 0 -89 c0 -100 9 -133 47 -173
37 -38 85 -52 181 -50 l82 2 0 -258 0 -258 28 2 27 1 3 256 2 256 200 -1 200
0 2 -256 3 -256 25 0 25 0 3 256 2 257 200 -1 200 0 0 -257 0 -257 28 2 27 1
3 256 2 256 93 -1 c100 0 133 10 174 54 34 36 43 72 43 169 l0 89 255 0 255 0
0 30 0 30 -255 0 -255 0 0 200 0 200 255 0 255 0 0 30 0 30 -255 0 -255 0 0
200 0 200 253 0 c140 0 256 2 259 5 3 3 3 16 1 29 l-5 23 -236 1 c-131 0 -244
1 -253 1 -14 1 -17 17 -21 104 -3 86 -7 107 -25 133 -41 57 -68 68 -180 72
l-103 4 0 254 0 254 -30 0 -30 0 0 -255 0 -255 -200 0 -200 0 0 255 0 255 -30
0 -30 0 0 -255 0 -255 -200 0 -200 0 0 255 0 255 -30 0 -30 0 0 -255z m1174
-327 c60 -27 58 2 58 -721 0 -432 -4 -671 -11 -689 -5 -15 -22 -35 -37 -45
-25 -16 -74 -17 -693 -17 -507 0 -671 3 -689 12 -56 31 -54 3 -54 731 0 728
-2 696 54 728 32 17 1334 19 1372 1z"/>
<path d="M3450 5065 c-93 -42 -139 -140 -110 -232 15 -48 74 -109 117 -124
l33 -11 0 -99 c0 -96 -1 -99 -22 -100 -13 0 -105 -1 -205 -1 l-183 0 0 -84 c0
-62 -3 -84 -12 -83 -7 1 -37 1 -66 0 l-53 -1 3 -157 3 -158 155 0 155 0 2 158
2 157 -63 0 c-34 0 -65 2 -67 4 -2 2 -2 27 -1 55 l4 50 344 0 c263 0 344 -3
345 -12 5 -117 12 -100 -78 -191 -46 -46 -83 -86 -83 -90 0 -4 43 -51 95 -104
l96 -96 99 99 100 100 -85 85 -85 85 0 92 0 91 -170 -2 -170 -1 0 102 0 101
34 12 c45 15 101 71 116 116 27 80 -6 176 -77 222 -44 30 -127 37 -173 17z
m141 -68 c85 -57 80 -181 -10 -223 -65 -31 -128 -14 -168 45 -77 115 63 255
178 178z m-388 -726 c4 -1 7 -45 7 -100 l0 -98 -100 1 -100 0 0 96 c0 53 2 99
4 101 4 3 163 3 189 0z m720 -183 c-63 -64 -54 -64 -122 3 -59 58 -59 54 4
115 l58 55 59 -58 58 -57 -57 -58z"/>
<path d="M2768 2623 l-47 -48 51 -45 c145 -130 340 -226 538 -265 71 -14 294
-13 370 1 215 40 411 135 557 272 l42 39 -49 48 -48 48 -59 -51 c-114 -98
-242 -165 -398 -208 -83 -23 -318 -28 -407 -9 -91 20 -196 57 -265 95 -72 40
-170 109 -202 144 -14 14 -27 26 -31 26 -3 0 -27 -21 -52 -47z"/>
<path d="M1103 2327 c-7 -11 -4 -627 3 -675 22 -156 120 -320 249 -418 67 -51
178 -107 205 -103 3 0 17 -4 32 -10 51 -19 120 -23 427 -24 291 0 305 1 311
19 5 16 6 57 1 109 -1 6 -118 10 -329 11 -306 0 -332 2 -397 22 -172 52 -306
191 -352 363 -13 53 -17 121 -18 384 -2 176 -3 322 -4 325 -2 9 -122 6 -128
-3z"/>
<path d="M5777 2330 c-10 -4 -13 -69 -12 -303 0 -187 -4 -324 -12 -369 -31
-185 -173 -344 -358 -400 -65 -21 -91 -22 -397 -22 -284 -1 -328 -3 -329 -16
-5 -70 -3 -112 4 -117 13 -8 588 -7 660 1 32 3 67 11 78 16 10 6 19 8 19 5 0
-2 24 5 53 16 220 87 376 284 412 521 9 55 8 658 0 666 -8 8 -100 9 -118 2z"/>
</g>
</svg>
