<svg width="1024" height="1024" viewBox="0 0 1024 1024" fill="none" xmlns="http://www.w3.org/2000/svg">
<path d="M170.667 341.333V256C170.667 233.368 179.657 211.663 195.661 195.66C211.664 179.657 233.369 170.667 256 170.667H341.334" stroke="#AFDD80" stroke-width="20"/>
<path d="M170.667 682.667V768C170.667 790.632 179.657 812.337 195.661 828.34C211.664 844.343 233.369 853.333 256 853.333H341.334" stroke="#AFDD80" stroke-width="20"/>
<path d="M682.666 170.667H767.999C790.631 170.667 812.336 179.657 828.339 195.66C844.342 211.663 853.333 233.368 853.333 256V341.333" stroke="#AFDD80" stroke-width="20"/>
<path d="M682.666 853.333H767.999C790.631 853.333 812.336 844.343 828.339 828.34C844.342 812.337 853.333 790.632 853.333 768V682.667" stroke="#AFDD80" stroke-width="20"/>
<path d="M384 426.667H384.427" stroke="#AFDD80"/>
<path d="M640 426.667H640.427" stroke="#AFDD80"/>
<path d="M405.334 640C419.238 654.191 435.834 665.465 454.15 673.161C472.466 680.857 492.133 684.822 512.001 684.822C531.868 684.822 551.535 680.857 569.851 673.161C588.167 665.465 604.763 654.191 618.667 640" stroke="#AFDD80" stroke-width="20"/>
<path d="M704 300.002V291.601H628.983V269.391C628.983 256.486 618.492 245.983 605.605 245.983H583.41L583.413 171H575.012V245.98H516.202V171H507.801V245.98H448.994V171H440.593V245.98H418.398C405.493 245.98 394.994 256.483 394.994 269.388V291.598L320 291.601V300.002H394.997V358.81L320 358.807V367.208H394.997V425.998H320V434.399H394.997V456.585C394.997 469.488 405.499 479.984 418.401 479.984H440.596V554.994H448.997L448.994 479.99H507.798V555H516.199L516.202 479.99H575.009V555H583.41L583.407 479.99H605.602C618.489 479.99 628.98 469.491 628.98 456.591V434.405H703.997V426.004H628.983V367.208H704V358.807H628.983V300.002H704ZM620.581 456.588C620.581 464.861 613.859 471.586 605.604 471.586H418.399C410.126 471.586 403.398 464.855 403.398 456.588V269.387C403.398 261.112 410.129 254.38 418.399 254.38H605.604C613.862 254.38 620.581 261.111 620.581 269.387V456.588Z" fill="#63C1FE"/>
<path d="M569.237 366.154H519.351V336.389C532.704 334.353 542.981 322.824 542.981 308.911C542.981 293.564 530.492 281.077 515.148 281.077C499.804 281.077 487.315 293.564 487.315 308.911C487.315 322.824 497.592 334.355 510.946 336.389V366.154H450.56V390.306H431.656V436.519H477.868V390.306H458.965L458.962 374.555H560.835V392.759L535.983 417.621L565.029 446.667L594.083 417.621L569.239 392.777L569.237 366.154ZM469.464 428.114H440.058V398.708H469.464V428.114ZM495.72 308.91C495.72 298.196 504.438 289.481 515.148 289.481C525.861 289.481 534.576 298.199 534.576 308.91C534.576 319.623 525.858 328.338 515.148 328.338C504.438 328.338 495.72 319.623 495.72 308.91ZM565.026 434.784L547.86 417.617L565.026 400.442L582.201 417.617L565.026 434.784Z" fill="#63C1FE"/>
</svg>
